<svg xmlns="http://www.w3.org/2000/svg" viewBox="0 0 278.36 340.46"><defs><style>.cls-1{font-size:43px;}.cls-1,.cls-5{fill:#0d0d0d;}.cls-1,.cls-6{font-family:Butler;}.cls-2,.cls-3,.cls-4,.cls-6{fill:#d9d509;}.cls-3{letter-spacing:-0.03em;}.cls-4{letter-spacing:0em;}.cls-6{font-size:85px;letter-spacing:-0.04em;}</style></defs><g id="Camada_2" data-name="Camada 2"><g id="Camada_1-2" data-name="Camada 1"><text class="cls-1" transform="translate(28.79 329.02)">Alopes.<tspan class="cls-2" x="135.71" y="0">D</tspan><tspan class="cls-3" x="166.49" y="0">e</tspan><tspan class="cls-4" x="186.32" y="0">v</tspan></text><path class="cls-2" d="M234.68,0V122h-7.36V7.36H131.41a92.84,92.84,0,0,0-92.73,92.73v99C36,205.79,33.59,211.72,31.32,217V100.09A100.2,100.2,0,0,1,131.41,0Z"/><path class="cls-2" d="M234.68,257.3v31.06H31.32V263.55h7.36V281H227.32V260.35A59.61,59.61,0,0,0,234.68,257.3Z"/><path d="M69.92,256.25h0Z"/><path class="cls-2" d="M266,199.37c0,42.51-22.29,56.45-49.14,60.32-1.1.16-2.21.3-3.32.43-1.53.17-3.08.31-4.62.43h-50.7v-1.84c7.57,0,12-6.7,12-18.66v-51.6c10,25.15,16.23,41,16.23,41q1,2.35,1.91,4.45c3.57,7.9,8.3,18.58,17.45,21.28a25,25,0,0,0,14.64-.16c6.23-2,10.93-6.66,14.55-12,5.61-8.27,8-18.41,9.08-28.21a138.2,138.2,0,0,0,.81-15.49c0-56.88-29.41-60.06-48.79-60.06h-7.74v86.57c-2.74-6.93-9.24-23.44-18.14-45.78V157.8c0-10.91-4.22-18.49-12-18.49V137h37.86C231.13,137,266,147.77,266,199.37Z"/><path class="cls-5" d="M105.11,27.81h-.32L49.59,178.24c-28.77,76.36-37,77.69-49.59,78v4.3H70.39v-4.29h-.47c-45.38,1-30.9-39.76-22-66.12h88.94l11.58,28.77c7.61,18.51,10.92,37.35-6.94,37.35v4.3h16.73v-1.84c7.57,0,12-6.7,12-18.66v-51.6C154.56,149.11,129.71,87.1,105.11,27.81Zm-52.88,158L90.64,80.45l1.59-4.36,43.31,109.75Z"/><text class="cls-6" transform="translate(262.64 257.13)">.</text></g></g></svg>